<svg xmlns="http://www.w3.org/2000/svg" xmlns:xlink="http://www.w3.org/1999/xlink" aria-hidden="true" role="img" class="iconify iconify--ph" width="32" height="32" preserveAspectRatio="xMidYMid meet" viewBox="0 0 256 256"><path fill="currentColor" d="M224 44h-64a43.8 43.8 0 0 0-32 13.8A43.8 43.8 0 0 0 96 44H32a20.1 20.1 0 0 0-20 20v128a20.1 20.1 0 0 0 20 20h64a20.1 20.1 0 0 1 20 20a12 12 0 0 0 24 0a20.1 20.1 0 0 1 20-20h64a20.1 20.1 0 0 0 20-20V64a20.1 20.1 0 0 0-20-20ZM96 188H36V68h60a20.1 20.1 0 0 1 20 20v104.8a43.4 43.4 0 0 0-20-4.8Zm124 0h-60a43.4 43.4 0 0 0-20 4.8V88a20.1 20.1 0 0 1 20-20h60Z"></path></svg>